<svg width="471" height="100" viewBox="0 0 471 100" fill="none" xmlns="http://www.w3.org/2000/svg">
<path d="M296.832 1.88281H290.797V98.1136H296.832V1.88281Z" fill="white"/>
<path d="M378.226 90.1401C379.334 92.9639 377.894 96.0091 375.07 97.0611C373.022 97.8363 370.862 96.9504 370.198 95.0125L372.412 94.182C372.911 95.0125 373.686 95.2893 374.572 94.9571C376.011 94.4035 376.621 92.6317 376.067 91.1921C375.679 90.1401 374.738 89.6971 373.686 90.1401C372.689 90.5276 372.136 91.4135 372.08 92.5209L369.866 93.3514C369.699 90.7491 371.028 88.8112 373.188 87.9807C375.347 87.0948 377.396 88.0914 378.226 90.1401Z" fill="white"/>
<path d="M362.001 97.8922L364.326 97.5047L364.492 90.5836L366.818 90.1406L366.596 97.1171L368.977 96.7295L368.922 98.6674L361.945 99.8855L362.001 97.8922Z" fill="white"/>
<path d="M353.805 95.8428C353.75 97.0056 354.525 97.7807 355.743 97.8361C357.404 97.8915 358.622 96.5072 358.677 95.0123C358.733 93.8495 357.958 93.019 356.739 93.019C355.078 92.9083 353.86 94.2925 353.805 95.8428ZM361.058 94.9015C360.947 98.0022 358.401 100.106 355.3 99.9955C352.864 99.8847 351.258 98.2237 351.369 95.9536C351.479 92.8529 354.026 90.7489 357.127 90.8596C359.563 90.915 361.169 92.6314 361.058 94.9015Z" fill="white"/>
<path d="M340.129 96.7863L344.115 88.7578L346.386 89.3669L343.285 95.5682L344.946 96.0111L346.884 92.9105C348.213 90.8618 349.597 90.1974 351.479 90.6957L352.255 90.9172L351.258 92.9105L350.815 92.7997C350.095 92.6336 349.597 92.9105 349.043 93.741L346.053 98.392L340.129 96.7863Z" fill="white"/>
<path d="M336.366 92.7421L337.307 91.524L334.705 90.2505L335.868 88.7555L338.47 90.029L339.411 88.8109L336.421 87.3159L337.64 85.7656L342.734 88.2572L337.252 95.3444L332.324 92.8528L333.487 91.3025L336.366 92.7421Z" fill="white"/>
<path d="M326.287 86.1542L328.17 87.5384L333.319 82.832L335.202 84.2162L330.052 88.9226L332.046 90.3068L330.551 91.691L324.848 87.483L326.287 86.1542Z" fill="white"/>
<path d="M317.871 79.955L325.567 75.3594L327.118 77.0204L323.02 79.512L329.499 79.6781L330.717 81.007L323.02 85.6026L321.47 83.8861L325.567 81.4499L319.089 81.2838L317.871 79.955Z" fill="white"/>
<path d="M316.875 74.5803L318.315 74.0266L316.82 71.5904L318.591 70.926L320.086 73.4176L321.581 72.8639L319.809 70.0401L321.692 69.3203L324.627 74.1374L316.266 77.238L313.387 72.4763L315.214 71.8119L316.875 74.5803Z" fill="white"/>
<path d="M308.293 56.418L314.937 58.522C317.484 59.3525 318.259 60.183 318.702 62.0656L318.868 62.8407L316.709 62.8961L316.543 62.287C316.377 61.6226 316.155 61.2904 315.657 61.0136L310.176 64.3357L309.566 61.8441L312.889 60.0169L308.847 58.8542L308.293 56.418Z" fill="white"/>
<path d="M308.016 46.5078L316.875 48.0581L316.93 50.3836L313.386 49.7746L313.442 52.4876L316.985 53.0967L317.041 55.4775L308.237 53.9272L308.182 51.6017L311.504 52.1554L311.393 49.4424L308.126 48.8333L308.016 46.5078Z" fill="white"/>
<path d="M310.011 35.7109L318.26 39.0884L317.818 41.3032L313.443 39.5314L317.153 44.8468L316.821 46.5632L308.516 43.1857L308.959 40.971L313.388 42.7428L309.623 37.4827L310.011 35.7109Z" fill="white"/>
<path d="M317.816 31.8364C317.429 31.6703 317.041 31.7811 316.875 32.224L316.377 33.4975L317.871 34.4941L318.425 33.2207C318.647 32.7223 318.425 32.1133 317.816 31.8364ZM315.491 31.3935C315.712 30.8398 315.491 30.2861 314.937 30.0646C314.549 29.8985 314.217 30.0646 314.051 30.4522L313.553 31.615L314.992 32.6116L315.491 31.3935ZM316.819 30.0093C317.373 29.5663 318.038 29.511 318.757 29.7878C320.363 30.4522 320.861 32.3348 320.142 33.9404L318.591 37.6502L311.172 32.667L312.611 29.1787C313.165 27.8499 314.328 27.3516 315.325 27.7945C316.266 28.1267 316.764 29.0126 316.819 30.0093Z" fill="white"/>
<path d="M317.983 23.5888L319.035 24.6408L320.64 22.2599L321.969 23.5334L320.419 25.9696L321.526 27.077L323.353 24.2532L324.793 25.6374L321.692 30.3991L315.27 24.1978L318.315 19.5469L319.699 20.8757L317.983 23.5888Z" fill="white"/>
<path d="M324.902 16.5013C324.515 16.1137 324.072 16.1137 323.629 16.5566L322.909 17.3318L324.293 19.2697L325.013 18.4945C325.622 17.8855 325.511 16.9996 324.902 16.5013ZM326.397 14.6187C327.892 16.0029 327.892 18.3284 326.453 19.8787L325.456 20.9308L326.951 22.9794L325.345 24.6958L320.141 17.4425L322.577 14.8402C323.74 13.6221 325.29 13.5667 326.397 14.6187Z" fill="white"/>
<path d="M328.837 15.7823C327.065 13.2907 327.73 10.0239 330.166 8.25213C331.938 6.97865 334.263 7.36623 335.426 9.08266L333.488 10.4669C332.823 9.80245 331.938 9.69172 331.162 10.2454C329.944 11.1313 329.778 13.0138 330.664 14.2319C331.329 15.1178 332.325 15.3393 333.211 14.6749C334.042 14.0658 334.429 13.0138 334.152 11.9618L336.09 10.5776C336.921 13.0692 336.09 15.284 334.208 16.6128C332.381 18.0524 330.11 17.5541 328.837 15.7823Z" fill="white"/>
<path d="M343.786 1.88281L345.447 10.6864L343.343 11.517L342.458 6.86599L340.021 12.9012L338.416 13.5656L336.699 4.76198L338.803 3.93145L339.744 8.58242L342.125 2.54724L343.786 1.88281Z" fill="white"/>
<path d="M353.25 2.04796L350.924 2.49091L350.869 9.46736L348.544 9.91031L348.654 2.93386L346.273 3.37681V1.38354L353.25 0.0546875V2.04796Z" fill="white"/>
<path d="M357.626 1.99327L357.349 3.48823L360.229 3.43286L359.896 5.31539L357.017 5.37076L356.74 6.92108L360.063 6.86572L359.675 8.80362L354.027 8.91436L355.688 0.110737L361.225 0L360.838 1.9379L357.626 1.99327Z" fill="white"/>
<path d="M369.641 3.26725L367.316 2.87967L364.879 9.41317L362.609 9.08096L364.99 2.54746L362.609 2.15988L363.274 0.277344L370.306 1.38472L369.641 3.26725Z" fill="white"/>
<path d="M372.244 7.91932L374.126 8.58374L374.68 5.70457L372.244 7.91932ZM373.739 10.3555L370.749 9.30353L369.475 10.4109L367.039 9.52501L374.901 3.04688L377.005 3.82204L375.677 12.681L373.351 11.8505L373.739 10.3555Z" fill="white"/>
<path d="M420.525 5.59224C396.052 5.59224 376.12 25.525 376.12 49.9979C376.12 74.4709 396.052 94.4036 420.525 94.4036C444.998 94.4036 464.931 74.4709 464.931 49.9979C464.931 25.525 444.998 5.59224 420.525 5.59224ZM420.525 99.9958C392.952 99.9958 370.527 77.5715 370.527 49.9979C370.527 22.4243 392.952 0 420.525 0C448.099 0 470.523 22.4243 470.523 49.9979C470.523 77.5715 448.099 99.9958 420.525 99.9958Z" fill="white"/>
<path d="M393.227 22.9792C398.985 30.454 402.418 39.8667 402.418 49.9991C402.418 60.1316 398.985 69.5443 393.227 77.0191C394.555 78.3479 395.94 79.566 397.435 80.7288C404.079 72.2574 408.01 61.5712 408.01 49.9991C408.01 38.4271 404.079 27.7409 397.435 19.2695C395.94 20.3769 394.555 21.6504 393.227 22.9792Z" fill="white"/>
<path d="M0 5.92336C7.97309 5.92336 11.3506 11.4602 14.8942 17.44L44.2396 67.7148C45.6238 70.2064 47.008 73.2517 46.9526 76.0755C46.8419 83.4949 37.2631 86.2079 31.5048 86.4848C27.2968 86.7062 23.1441 85.7096 19.379 84.0486L17.0536 87.0385C18.4378 92.8522 23.8085 99.884 31.1726 99.8286C44.0181 99.7179 50.7177 88.0351 55.867 78.4563L65.3904 60.7937L37.7061 13.2874C35.1591 9.02401 39.3671 5.92336 43.7966 5.92336L44.8486 1.99219H0.996636L0 5.92336Z" fill="white"/>
<path d="M189.25 19.3226V6.08947H186.592L181.111 15.1146V6.08947H178.453V19.3226H181.111L186.537 10.3529V19.3226H189.25ZM180.391 3.59788C182.44 5.1482 185.319 5.1482 187.367 3.59788L186.26 1.99219C184.821 3.04419 182.993 3.04419 181.498 1.99219L180.391 3.59788Z" fill="white"/>
<path d="M102.043 14.9483V10.3527C102.043 7.47356 100.493 5.8125 97.6689 5.8125C96.6168 5.8125 94.7343 6.25545 94.0145 6.8645C93.7931 6.47692 93.5162 6.03397 92.9625 5.8125L91.2461 7.36282C91.9105 7.80577 91.9105 8.6363 91.9105 9.02388V23.5305H94.6789V18.8795C95.5095 19.2671 96.8383 19.4332 97.4474 19.4332C99.9943 19.5439 102.043 17.8829 102.043 14.9483ZM99.2746 15.2252C99.2746 16.3879 98.1118 17.1077 97.0598 17.1077C96.1739 17.1077 95.1773 16.7755 94.6236 16.3879V9.46683V9.24536C95.2326 8.6363 96.4508 8.30409 97.2259 8.30409C98.2779 8.30409 99.2746 9.07925 99.2746 10.1866V15.2252Z" fill="white"/>
<path d="M126.849 19.3225V6.03397H117.769V14.2839C117.769 15.945 116.717 17.3292 115.277 17.3846C114.613 17.3846 113.561 16.9416 113.561 15.945V10.2974C113.561 7.52893 112.121 5.8125 109.02 5.8125C106.916 5.8125 105.255 6.6984 104.369 7.63967L105.809 9.41146C106.75 8.52556 108.024 8.19335 108.688 8.19335C109.629 8.19335 110.737 8.58093 110.737 9.85441V11.294H108.467C105.255 11.294 103.871 13.3426 103.871 15.502C103.871 17.5507 104.978 19.5993 108.245 19.5993C109.242 19.5993 110.515 19.101 111.29 18.3258C112.619 19.4886 113.837 19.71 115.222 19.71C118.378 19.5993 120.371 17.9382 120.26 14.2839V8.30409H124.025V19.3225H126.849ZM110.792 16.2772C110.128 17.1077 108.965 17.3846 108.024 17.2184C107.304 17.1077 106.75 16.3879 106.695 15.6128C106.695 14.6161 107.304 13.5641 108.744 13.5641H110.792V16.2772Z" fill="white"/>
<path d="M163.283 19.3236L158.356 12.3472L162.951 6.09053H159.795L156.362 11.2952H154.646V6.03516H151.988V19.3236H154.591L154.646 13.5653H156.307L160.127 19.3236H163.283Z" fill="white"/>
<path d="M129.672 19.3783V6.08984H132.44V10.5747H134.378C137.59 10.5747 139.306 12.568 139.306 14.8381C139.251 17.1082 137.7 19.3783 134.434 19.3783H129.672ZM132.385 17.0528H134.71C135.929 17.0528 136.427 15.724 136.427 14.8381C136.427 13.9522 135.929 12.8448 134.71 12.8448H132.44L132.385 17.0528Z" fill="white"/>
<path d="M150.213 17.8307L149.105 15.8375C147.555 16.9448 146.614 17.277 145.839 17.277C144.731 17.277 143.624 16.7234 143.624 15.5606V10.4113C143.624 9.24858 144.731 8.41805 146.005 8.41805C146.835 8.41805 147.887 8.91637 148.718 9.7469L150.157 7.91973C149.216 6.75699 147.832 5.87109 145.673 5.87109C142.959 5.87109 140.855 7.53215 140.855 10.4113V15.3945C140.855 18.2183 143.015 19.5472 145.728 19.5472C147.943 19.5472 149.438 18.4952 150.213 17.8307Z" fill="white"/>
<path d="M175.629 19.323V6.08984H172.971L167.49 15.1149V6.08984H164.832V19.323H167.49H167.545L172.971 10.3532V19.323H175.629Z" fill="white"/>
<path d="M91.1376 1.99219H88.037L85.6561 9.90991C85.6008 10.076 85.5454 10.1868 85.5454 10.3529C85.49 10.519 85.49 10.6297 85.49 10.7404C85.49 10.8512 85.49 10.9065 85.49 10.9065C85.49 10.9065 85.49 10.8512 85.49 10.7404C85.49 10.6297 85.4347 10.519 85.4347 10.3529C85.3793 10.1868 85.3793 10.0206 85.3239 9.90991L81.8357 1.99219H78.6797L84.1612 14.3394L83.829 15.2253C83.386 16.2219 82.1679 17.3293 80.0639 17.3847L80.3961 19.5441C83.4968 19.5994 85.5454 18.2152 86.3759 15.8897L91.1376 1.99219Z" fill="white"/>
<path d="M225.407 41.8031V28.5699H222.694L217.212 37.595V28.5699H214.555V41.8031H217.212L222.639 32.8333V41.8031H225.407ZM216.493 26.0783C218.541 27.6287 221.42 27.6287 223.469 26.0783L222.362 24.4727C220.922 25.5247 219.095 25.5247 217.6 24.4727L216.493 26.0783Z" fill="white"/>
<path d="M211.787 28.5703H209.074V41.8034H211.787V28.5703Z" fill="white"/>
<path d="M197.941 41.8588V28.5703H200.71V33.0552H202.648C205.859 33.0552 207.576 35.0484 207.576 37.2632C207.576 39.5333 205.97 41.8034 202.703 41.8034L197.941 41.8588ZM200.71 39.5333H203.035C204.253 39.5333 204.752 38.2045 204.752 37.3186C204.752 36.4327 204.253 35.3253 203.035 35.3253H200.765V39.5333H200.71Z" fill="white"/>
<path d="M94.1282 37.3745V32.7789C94.1282 29.8997 92.7994 28.2387 89.9756 28.2387C89.2004 28.2387 88.3699 28.4602 87.7608 28.7924V26.3008H84.9924V28.7924C84.3833 28.4602 83.5528 28.2387 82.7777 28.2387C79.9538 28.2387 78.625 29.8997 78.625 32.7789V37.3745C78.625 40.3644 80.4522 41.9701 82.9991 41.9701C83.6635 41.9701 84.6602 41.6379 84.9924 41.4164V46.0674H87.7608V41.4164C88.0377 41.6933 89.0897 41.9701 89.7541 41.9701C92.3011 42.0255 94.1282 40.3644 94.1282 37.3745ZM84.9924 31.5054V38.4819C84.7156 38.8695 84.2726 39.2017 83.3867 39.2017C82.3347 39.2017 81.3934 38.4819 81.3934 37.3191V32.2252C81.3934 31.0625 82.1686 30.2873 83.2206 30.2873C83.9958 30.7303 84.7709 31.1179 84.9924 31.5054ZM91.3598 37.7067C91.3598 38.8695 90.4185 39.5893 89.3665 39.5893C88.4806 39.5893 88.0377 39.257 87.7608 38.8695V31.893C87.9823 31.5054 88.8128 31.0625 89.5326 31.0625C90.5846 31.0625 91.3598 31.8376 91.3598 33.0004V37.7067Z" fill="white"/>
<path d="M106.474 40.2519L105.311 38.1479C103.983 39.1999 102.709 39.5875 101.657 39.5875C100.328 39.5875 99.3316 38.8677 99.3316 37.4281V36.21H106.197V32.9986C106.197 29.6211 104.093 28.3477 101.491 28.3477C98.5565 28.3477 96.5078 29.8426 96.5078 33.1647V37.5942C96.5078 40.5288 98.4457 42.0237 101.436 42.0237C103.595 42.0237 104.924 41.3039 106.474 40.2519ZM103.374 32.2788V33.9399H99.2762V32.5003C99.2762 31.3376 100.273 30.6178 101.491 30.6178C102.211 30.6178 103.374 31.1161 103.374 32.2788Z" fill="white"/>
<path d="M119.43 39.5333V28.5703H110.35V35.879C110.35 37.54 109.353 39.5333 107.914 39.5887H107.637V45.0702H110.239V41.8588H118.212V45.0702H120.925V39.5887L119.43 39.5333ZM111.845 39.5333C112.509 38.8135 112.952 37.3739 112.897 35.9343V30.7851H116.662V39.5333H111.845Z" fill="white"/>
<path d="M195.173 41.8034V28.5703H192.46V33.7196H187.033V28.5703H184.32V41.8034H187.033V35.9897H192.46V41.8034H195.173Z" fill="white"/>
<path d="M145.121 37.4288V32.8332C145.121 29.954 143.571 28.293 140.747 28.293C139.695 28.293 137.812 28.7359 137.093 29.345C136.871 28.9574 136.594 28.5144 136.041 28.293L134.324 29.8433C134.989 30.2862 134.989 31.1168 134.989 31.5044V46.0109H137.757V41.36C138.588 41.7476 139.916 41.9137 140.526 41.9137C143.072 42.0244 145.121 40.4187 145.121 37.4288ZM142.297 37.7056C142.297 38.8684 141.135 39.5882 140.083 39.5882C139.197 39.5882 138.2 39.256 137.646 38.8684V31.9473V31.7258C138.255 31.1168 139.474 30.7846 140.249 30.7846C141.301 30.7846 142.297 31.5597 142.297 32.7225V37.7056Z" fill="white"/>
<path d="M169.927 41.8022V28.5138H160.847V36.7637C160.847 38.4248 159.795 39.809 158.355 39.8643C157.691 39.8643 156.639 39.4214 156.639 38.4248V32.8325C156.639 30.0641 155.199 28.3477 152.099 28.3477C149.995 28.3477 148.333 29.2336 147.448 30.1748L148.887 31.9466C149.828 31.0607 151.102 30.7285 151.766 30.7285C152.708 30.7285 153.815 31.1161 153.815 32.3896V33.8292H151.545C148.333 33.8292 146.949 35.8778 146.949 38.0372C146.949 40.0858 148.057 42.1345 151.323 42.1345C152.32 42.1345 153.593 41.6361 154.369 40.861C155.697 42.0237 156.916 42.2452 158.3 42.2452C161.456 42.1345 163.449 40.4734 163.338 36.8191V30.8392H167.103V41.8576L169.927 41.8022ZM153.87 38.757C152.874 40.0858 149.828 40.2519 149.773 38.0925C149.773 37.0959 150.382 36.0439 151.822 36.0439H153.87V38.757Z" fill="white"/>
<path d="M172.75 41.8588V28.5703H175.518V33.0552H177.456C180.668 33.0552 182.384 35.0484 182.384 37.2632C182.384 39.5333 180.778 41.8034 177.512 41.8034L172.75 41.8588ZM175.463 39.5333H177.789C179.007 39.5333 179.505 38.2045 179.505 37.3186C179.505 36.4327 179.007 35.3253 177.789 35.3253H175.518V39.5333H175.463Z" fill="white"/>
<path d="M132.607 40.2519L131.444 38.1479C130.115 39.1999 128.842 39.5875 127.79 39.5875C126.461 39.5875 125.464 38.8677 125.464 37.4281V36.21H132.33V32.9986C132.33 29.6211 130.226 28.3477 127.624 28.3477C124.689 28.3477 122.641 29.8426 122.641 33.1647V37.5942C122.641 40.5288 124.579 42.0237 127.568 42.0237C129.728 42.0237 131.057 41.3039 132.607 40.2519ZM129.562 32.2788V33.9399H125.464V32.5003C125.464 31.3376 126.461 30.6178 127.679 30.6178C128.399 30.6178 129.562 31.1161 129.562 32.2788Z" fill="white"/>
<path d="M90.0303 51.0508H87.0404L84.3273 61.3494C84.3273 61.3494 84.3273 60.5742 84.0504 59.4668L81.725 51.0508H78.6797C78.6797 51.0508 82.2233 62.2906 83.0538 64.2285C82.6662 65.945 81.725 67.1077 79.6763 67.3292L79.9532 69.3224C82.9984 69.3224 84.7149 67.6614 85.3793 65.6681L90.0303 51.0508Z" fill="white"/>
<path d="M102.543 64.2839V51.0508H99.8853V56.2001H94.4038V51.0508H91.7461V64.2839H94.4038V58.4702H99.8853V64.2839H102.543Z" fill="white"/>
<path d="M116.164 64.2839V51.0508H113.506L108.025 60.0759V51.0508H105.367V64.2839H108.025L113.506 55.3142V64.2839H116.164Z" fill="white"/>
<path d="M118.988 64.2839V51.0508H123.695C126.961 51.0508 127.958 53.0441 127.903 54.539C127.847 56.034 127.017 56.8091 126.297 57.1967C127.127 57.4182 128.567 58.4148 128.567 60.3527C128.567 62.2906 127.127 64.2839 123.916 64.2839H118.988ZM121.701 53.3763V56.2554H123.695C124.802 56.2554 125.079 55.4803 125.079 54.8159C125.079 54.1514 124.636 53.3763 123.75 53.3763H121.701ZM121.701 62.0138H124.027C125.245 62.0138 125.743 61.0171 125.743 60.1312C125.743 59.2453 125.245 58.4702 124.027 58.4702H121.757L121.701 62.0138Z" fill="white"/>
<path d="M179.227 51.0508V53.3209H182.604V64.3393H182.77H185.262H185.483V53.3209H188.805V51.0508H179.227Z" fill="white"/>
<path d="M201.266 51.0508V53.3209H204.588V64.3393H204.754H207.301H207.467V53.3209H210.844V51.0508H201.266Z" fill="white"/>
<path d="M177.234 64.2839V51.0508H174.577L169.095 60.0759V51.0508H166.438V64.2839H169.095L174.577 55.3142V64.2839H177.234Z" fill="white"/>
<path d="M152.875 59.9093V55.3137C152.875 52.4345 151.325 50.7734 148.501 50.7734C147.449 50.7734 145.566 51.2164 144.847 51.8254C144.625 51.4379 144.348 50.9949 143.795 50.7734L142.078 52.3238C142.743 52.7667 142.743 53.5972 142.743 53.9848V68.4914H145.511V63.8404C146.342 64.228 147.67 64.3941 148.279 64.3941C150.882 64.5049 152.875 62.8992 152.875 59.9093ZM150.107 60.1861C150.107 61.3489 148.944 62.0686 147.892 62.0686C147.006 62.0686 146.009 61.7364 145.456 61.3489V54.4278V54.2063C146.065 53.5972 147.283 53.265 148.058 53.265C149.11 53.265 150.107 54.0402 150.107 55.1476V60.1861Z" fill="white"/>
<path d="M164.666 62.7878L163.559 60.7945C162.008 61.9019 161.067 62.2341 160.292 62.2341C159.184 62.2341 158.077 61.6804 158.077 60.5176V55.3684C158.077 54.2056 159.184 53.3751 160.458 53.3751C161.288 53.3751 162.34 53.8734 163.171 54.7039L164.611 52.8768C163.669 51.714 162.285 50.8281 160.126 50.8281C157.413 50.8281 155.309 52.4892 155.309 55.3684V60.3515C155.309 63.1753 157.468 64.5042 160.181 64.5042C162.396 64.4488 163.891 63.3968 164.666 62.7878Z" fill="white"/>
<path d="M200.158 62.7324L198.995 60.6284C197.666 61.6804 196.393 62.068 195.341 62.068C194.012 62.068 193.015 61.3482 193.015 59.9086V58.6905H199.881V55.4791C199.881 52.1016 197.777 50.8281 195.175 50.8281C192.24 50.8281 190.191 52.3231 190.191 55.6452V60.0747C190.191 63.0092 192.129 64.5042 195.119 64.5042C197.279 64.4488 198.607 63.7844 200.158 62.7324ZM197.112 54.7593V56.4204H193.015V54.9808C193.015 53.818 194.012 53.0982 195.23 53.0982C195.95 53.0982 197.112 53.5966 197.112 54.7593Z" fill="white"/>
<path d="M140.47 62.7324L139.308 60.6284C137.979 61.6804 136.705 62.068 135.653 62.068C134.324 62.068 133.328 61.3482 133.328 59.9086V58.6905H140.193V55.4791C140.193 52.1016 138.089 50.8281 135.487 50.8281C132.553 50.8281 130.504 52.3231 130.504 55.6452V60.0747C130.504 63.0092 132.442 64.5042 135.432 64.5042C137.591 64.4488 138.92 63.7844 140.47 62.7324ZM137.425 54.7593V56.4204H133.328V54.9808C133.328 53.818 134.324 53.0982 135.542 53.0982C136.207 53.0982 137.425 53.5966 137.425 54.7593Z" fill="white"/>
<path d="M83.717 79.3991L83.0526 80.5618L80.7825 84.4377H79.7305V77.5719H80.7271V82.6105L80.7825 82.6659L81.5023 81.3924L83.717 77.5719H84.7136V84.4377H83.717V79.3991ZM87.1499 84.4377H86.1532V77.5719H87.5375L89.0324 80.9494L89.3093 81.5031L89.5307 80.9494L91.0257 77.5719H92.4099V84.4377H91.3579V79.1776L91.2472 79.3991L89.6415 82.832H88.9217L87.316 79.3991L87.2052 79.1776V84.4377H87.1499ZM94.7354 81.2263C94.7354 81.5031 94.7354 81.78 94.7907 82.1122C94.8461 82.389 94.9015 82.6659 95.0122 82.8873C95.123 83.1088 95.3444 83.3303 95.5659 83.441C95.7874 83.6071 96.1196 83.6625 96.5625 83.6625C96.8394 83.6625 97.1716 83.6625 97.5038 83.6071C97.836 83.5518 98.1682 83.441 98.5558 83.3303L98.888 84.1054C98.5558 84.2715 98.2236 84.3823 97.836 84.493C97.4484 84.6038 97.0055 84.6591 96.5625 84.6591C95.9535 84.6591 95.4552 84.5484 95.0676 84.3823C94.68 84.2162 94.4032 83.9393 94.1263 83.6071C93.9048 83.2749 93.7387 82.8873 93.6834 82.4444C93.628 82.0014 93.5726 81.5585 93.5726 81.0048C93.5726 80.6726 93.628 80.3404 93.6834 79.8974C93.7387 79.4545 93.8495 79.0669 94.071 78.6793C94.2371 78.2917 94.5139 77.9595 94.9015 77.6827C95.2337 77.4058 95.732 77.2951 96.3411 77.2951C97.0055 77.2951 97.5038 77.4058 97.836 77.6273C98.2236 77.8488 98.4451 78.1256 98.6666 78.4578C98.8327 78.7901 98.9434 79.233 98.9988 79.6759C99.0541 80.1743 99.0541 80.6172 99.0541 81.1155H94.7354V81.2263ZM96.2303 78.2364C95.9535 78.2364 95.732 78.2917 95.5659 78.4025C95.3998 78.5132 95.2337 78.6793 95.123 78.9008C95.0122 79.1223 94.9015 79.3437 94.8461 79.5652C94.7907 79.7867 94.7354 80.0635 94.7354 80.285H97.7253C97.7253 80.0082 97.7253 79.7313 97.6699 79.4545C97.6145 79.233 97.5592 79.0115 97.4484 78.7901C97.3377 78.6239 97.1716 78.4578 97.0055 78.3471C96.784 78.2917 96.5072 78.2364 96.2303 78.2364ZM103.982 81.337H101.047V84.4377H99.94V77.5719H101.047V80.3957H103.982V77.5719H105.089V84.4377H103.982V81.337ZM110.349 79.3991L109.685 80.5618L107.415 84.4377H106.418V77.5719H107.415V82.6105L107.47 82.6659L108.19 81.3924L110.405 77.5719H111.401V84.4377H110.405V79.3991H110.349ZM119.928 78.4578H117.16V84.3823H116.052V77.5166H121.036V84.3823H119.928V78.4578ZM123.527 81.2263C123.527 81.5031 123.527 81.78 123.582 82.1122C123.638 82.389 123.693 82.6659 123.804 82.8873C123.915 83.1088 124.136 83.3303 124.358 83.441C124.579 83.6071 124.911 83.6625 125.354 83.6625C125.631 83.6625 125.963 83.6625 126.296 83.6071C126.628 83.5518 126.96 83.441 127.348 83.3303L127.68 84.1054C127.348 84.2715 127.015 84.3823 126.628 84.493C126.24 84.6038 125.797 84.6591 125.354 84.6591C124.745 84.6591 124.247 84.5484 123.859 84.3823C123.472 84.2162 123.195 83.9393 122.918 83.6071C122.697 83.2749 122.53 82.8873 122.475 82.4444C122.42 82.0014 122.364 81.5585 122.364 81.0048C122.364 80.6726 122.42 80.3404 122.475 79.8974C122.53 79.4545 122.641 79.0669 122.863 78.6793C123.029 78.2917 123.306 77.9595 123.693 77.6827C124.025 77.4058 124.524 77.2951 125.133 77.2951C125.797 77.2951 126.296 77.4058 126.628 77.6273C127.015 77.8488 127.237 78.1256 127.458 78.4578C127.624 78.7901 127.735 79.233 127.79 79.6759C127.846 80.1743 127.846 80.6172 127.846 81.1155H123.527V81.2263ZM125.022 78.2364C124.745 78.2364 124.524 78.2917 124.358 78.4025C124.192 78.5132 124.025 78.6793 123.915 78.9008C123.804 79.1223 123.693 79.3437 123.638 79.5652C123.582 79.7867 123.527 80.0635 123.527 80.285H126.517C126.517 80.0082 126.517 79.7313 126.462 79.4545C126.406 79.233 126.351 79.0115 126.24 78.7901C126.129 78.6239 125.963 78.4578 125.797 78.3471C125.52 78.2917 125.299 78.2364 125.022 78.2364ZM129.673 77.5719L129.95 78.2917L130.67 77.8488C131.113 77.5166 131.5 77.4058 131.832 77.4058C132.275 77.4058 132.663 77.5166 132.995 77.738C133.272 77.9595 133.549 78.2364 133.715 78.5686C133.881 78.9008 133.992 79.2884 134.047 79.7313C134.103 80.1743 134.158 80.6172 134.158 81.0602C134.158 81.4477 134.103 81.8353 134.047 82.2783C133.992 82.7212 133.881 83.1088 133.66 83.441C133.493 83.7732 133.217 84.0501 132.884 84.3269C132.552 84.5484 132.165 84.6591 131.611 84.6591C131.389 84.6591 131.113 84.6038 130.836 84.493C130.559 84.3823 130.227 84.2162 129.95 83.9947V87.3168H128.842V77.6273H129.673V77.5719ZM129.95 83.1088C130.171 83.2749 130.448 83.3856 130.725 83.5518C131.002 83.6625 131.334 83.7732 131.611 83.7732C131.888 83.7732 132.165 83.6625 132.331 83.4964C132.497 83.2749 132.663 83.0534 132.718 82.7766C132.774 82.4998 132.829 82.2229 132.884 81.8907C132.884 81.5585 132.884 81.337 132.884 81.1155C132.884 80.6726 132.884 80.285 132.829 79.9528C132.774 79.6206 132.718 79.3437 132.608 79.1223C132.497 78.9008 132.386 78.7347 132.22 78.6239C132.054 78.5132 131.832 78.4578 131.556 78.4578C131.389 78.4578 131.279 78.4578 131.113 78.5132C130.946 78.5686 130.836 78.6239 130.67 78.6793C130.504 78.7347 130.393 78.8454 130.282 78.9562C130.171 79.0669 130.061 79.1223 129.95 79.233V83.1088ZM140.47 82.389C140.47 82.9427 140.304 83.441 139.916 83.8286C139.529 84.2162 138.975 84.3823 138.311 84.3823H135.431V77.5166H138.2C138.809 77.5166 139.307 77.6827 139.695 77.9595C140.082 78.2364 140.248 78.6793 140.248 79.233C140.248 79.5652 140.193 79.8421 140.027 80.1189C139.861 80.3957 139.639 80.6172 139.307 80.728C139.75 80.8387 140.082 81.0048 140.248 81.2816C140.359 81.6139 140.47 82.0014 140.47 82.389ZM139.418 82.389C139.418 82.0014 139.307 81.7246 139.086 81.5031C138.864 81.337 138.532 81.2263 138.144 81.2263H136.539V83.441H138.255C138.421 83.441 138.532 83.441 138.698 83.3857C138.864 83.3303 138.975 83.2749 139.086 83.2195C139.196 83.1088 139.307 82.9981 139.363 82.8873C139.363 82.7766 139.418 82.6105 139.418 82.389ZM139.086 79.3437C139.086 79.1776 139.03 79.0115 138.975 78.9008C138.92 78.7901 138.809 78.6793 138.698 78.6239C138.587 78.5686 138.477 78.5132 138.366 78.5132C138.255 78.5132 138.144 78.4578 138.089 78.4578H136.428V80.3404H137.978C138.753 80.3404 139.086 80.0082 139.086 79.3437ZM144.235 84.6038C143.737 84.6038 143.294 84.493 142.962 84.3269C142.629 84.1608 142.352 83.884 142.131 83.5518C141.909 83.2195 141.743 82.832 141.633 82.389C141.522 81.9461 141.467 81.5031 141.467 80.9494C141.467 80.4511 141.522 80.0082 141.633 79.5652C141.743 79.1223 141.909 78.7347 142.131 78.4025C142.352 78.0703 142.629 77.7934 143.017 77.5719C143.349 77.3505 143.792 77.2951 144.346 77.2951C144.844 77.2951 145.287 77.4058 145.619 77.5719C145.951 77.7381 146.284 78.0149 146.505 78.3471C146.727 78.6793 146.893 79.0669 147.003 79.5098C147.114 79.9528 147.17 80.3957 147.17 80.8941C147.17 81.3924 147.114 81.8353 147.003 82.2783C146.893 82.7212 146.727 83.1088 146.505 83.441C146.284 83.7732 146.007 84.0501 145.619 84.2162C145.232 84.493 144.789 84.6038 144.235 84.6038ZM144.29 78.2364C143.958 78.2364 143.681 78.2917 143.515 78.4578C143.349 78.6239 143.128 78.7901 143.017 79.0115C142.906 79.233 142.795 79.5098 142.74 79.8421C142.685 80.1743 142.685 80.5065 142.685 80.8387C142.685 81.2263 142.685 81.6139 142.74 81.9461C142.795 82.2783 142.851 82.6105 143.017 82.832C143.128 83.1088 143.294 83.2749 143.515 83.441C143.737 83.6071 143.958 83.6625 144.29 83.6625C144.623 83.6625 144.844 83.6071 145.066 83.441C145.287 83.2749 145.453 83.1088 145.564 82.8873C145.675 82.6659 145.785 82.3337 145.841 82.0014C145.896 81.6692 145.896 81.2816 145.896 80.8941C145.896 80.5619 145.896 80.2296 145.841 79.8974C145.785 79.5652 145.73 79.2884 145.564 79.0669C145.453 78.8454 145.287 78.6239 145.066 78.4578C144.844 78.2917 144.623 78.2364 144.29 78.2364ZM149.44 84.4377H148.332V77.5719H152.54V78.5132H149.44V84.4377ZM155.862 84.6038C155.364 84.6038 154.921 84.493 154.589 84.3269C154.257 84.1608 153.98 83.884 153.758 83.5518C153.537 83.2195 153.371 82.832 153.26 82.389C153.149 81.9461 153.094 81.5031 153.094 80.9494C153.094 80.4511 153.149 80.0082 153.26 79.5652C153.371 79.1223 153.537 78.7347 153.758 78.4025C153.98 78.0703 154.257 77.7934 154.644 77.5719C154.976 77.3505 155.419 77.2951 155.973 77.2951C156.471 77.2951 156.914 77.4058 157.247 77.5719C157.579 77.7381 157.911 78.0149 158.133 78.3471C158.354 78.6793 158.52 79.0669 158.631 79.5098C158.742 79.9528 158.797 80.3957 158.797 80.8941C158.797 81.3924 158.742 81.8353 158.631 82.2783C158.52 82.7212 158.354 83.1088 158.133 83.441C157.911 83.7732 157.634 84.0501 157.247 84.2162C156.859 84.493 156.416 84.6038 155.862 84.6038ZM155.918 78.2364C155.586 78.2364 155.309 78.2917 155.143 78.4578C154.921 78.5686 154.755 78.7901 154.644 79.0115C154.534 79.233 154.423 79.5098 154.367 79.8421C154.312 80.1743 154.312 80.5065 154.312 80.8387C154.312 81.2263 154.312 81.6139 154.367 81.9461C154.423 82.2783 154.478 82.6105 154.644 82.832C154.755 83.1088 154.921 83.2749 155.143 83.441C155.364 83.5518 155.586 83.6625 155.918 83.6625C156.25 83.6625 156.471 83.6071 156.693 83.441C156.914 83.2749 157.081 83.1088 157.191 82.8873C157.302 82.6659 157.413 82.3337 157.468 82.0014C157.523 81.6692 157.523 81.2816 157.523 80.8941C157.523 80.5619 157.523 80.2296 157.468 79.8974C157.413 79.5652 157.357 79.2884 157.191 79.0669C157.081 78.8454 156.914 78.6239 156.693 78.4578C156.471 78.2917 156.25 78.2364 155.918 78.2364ZM168.376 75.634H164.777V84.3823H163.559V74.582H169.594V84.3823H168.376V75.634ZM171.919 77.5719L172.196 78.2917L172.916 77.8488C173.359 77.5166 173.746 77.4058 174.079 77.4058C174.522 77.4058 174.909 77.5166 175.241 77.738C175.518 77.9595 175.795 78.2364 175.961 78.5686C176.127 78.9008 176.238 79.2884 176.293 79.7313C176.349 80.1743 176.404 80.6172 176.404 81.0602C176.404 81.4477 176.349 81.8353 176.293 82.2783C176.238 82.7212 176.127 83.1088 175.906 83.441C175.74 83.7732 175.463 84.0501 175.131 84.3269C174.798 84.5484 174.411 84.6591 173.857 84.6591C173.636 84.6591 173.359 84.6038 173.082 84.493C172.75 84.3823 172.473 84.2162 172.196 83.9947V87.3168H171.089V77.6273H171.919V77.5719ZM172.196 83.1088C172.418 83.2749 172.694 83.3856 172.971 83.5518C173.248 83.6625 173.58 83.7732 173.857 83.7732C174.189 83.7732 174.411 83.6625 174.577 83.4964C174.743 83.2749 174.909 83.0534 174.965 82.7766C175.02 82.4998 175.075 82.2229 175.131 81.8907C175.131 81.5585 175.131 81.337 175.131 81.1155C175.131 80.6726 175.131 80.285 175.075 79.9528C175.02 79.6206 174.965 79.3437 174.854 79.1223C174.743 78.9008 174.632 78.7347 174.466 78.6239C174.3 78.5132 174.079 78.4578 173.802 78.4578C173.636 78.4578 173.525 78.4578 173.359 78.5132C173.193 78.5686 173.082 78.6239 172.916 78.6793C172.805 78.7347 172.639 78.8454 172.528 78.9562C172.418 79.0669 172.307 79.1223 172.196 79.233V83.1088ZM178.564 81.2263C178.564 81.5031 178.564 81.78 178.619 82.1122C178.674 82.389 178.73 82.6659 178.84 82.8873C178.951 83.1088 179.173 83.3303 179.394 83.441C179.616 83.6071 179.948 83.6625 180.391 83.6625C180.668 83.6625 181 83.6625 181.332 83.6071C181.664 83.5518 181.996 83.441 182.384 83.3303L182.716 84.1054C182.384 84.2715 182.052 84.3823 181.664 84.493C181.277 84.6038 180.834 84.6591 180.391 84.6591C179.782 84.6591 179.283 84.5484 178.896 84.3823C178.508 84.2162 178.231 83.9393 177.954 83.6071C177.733 83.2749 177.567 82.8873 177.512 82.4444C177.456 82.0014 177.401 81.5585 177.401 81.0048C177.401 80.6726 177.456 80.3404 177.512 79.8974C177.567 79.4545 177.678 79.0669 177.899 78.6793C178.065 78.2917 178.342 77.9595 178.73 77.6827C179.062 77.4058 179.56 77.2951 180.169 77.2951C180.834 77.2951 181.332 77.4058 181.664 77.6273C182.052 77.8488 182.273 78.1256 182.495 78.4578C182.661 78.7901 182.772 79.233 182.827 79.6759C182.882 80.1743 182.882 80.6172 182.882 81.1155H178.564V81.2263ZM180.059 78.2364C179.782 78.2364 179.56 78.2917 179.394 78.4025C179.228 78.5132 179.062 78.6793 178.951 78.9008C178.84 79.1223 178.73 79.3437 178.674 79.5652C178.619 79.7867 178.564 80.0635 178.564 80.285H181.553C181.553 80.0082 181.553 79.7313 181.498 79.4545C181.443 79.233 181.387 79.0115 181.277 78.7901C181.166 78.6239 181 78.4578 180.834 78.3471C180.557 78.2917 180.335 78.2364 180.059 78.2364ZM185.429 84.5484C184.931 84.5484 184.488 84.493 184.156 84.3823C183.768 84.2715 183.436 84.1054 183.159 83.9393L183.547 83.2195C183.768 83.3303 184.1 83.441 184.377 83.5518C184.709 83.6071 184.986 83.6625 185.319 83.6625C185.761 83.6625 186.149 83.5518 186.426 83.3857C186.703 83.1642 186.869 82.8873 186.869 82.4444C186.869 82.3336 186.869 82.2229 186.813 82.0568C186.758 81.9461 186.703 81.78 186.592 81.6692C186.481 81.5585 186.371 81.4477 186.149 81.3924C185.983 81.337 185.706 81.2816 185.429 81.2816H184.488V80.4511H185.54C186.315 80.4511 186.758 80.0635 186.758 79.3437C186.758 79.233 186.758 79.1223 186.703 79.0115C186.647 78.9008 186.592 78.7901 186.481 78.6793C186.371 78.5686 186.26 78.5132 186.094 78.4578C185.928 78.4025 185.706 78.3471 185.429 78.3471C185.319 78.3471 185.208 78.3471 185.097 78.4025C184.986 78.4025 184.82 78.4578 184.654 78.5132C184.488 78.5686 184.377 78.6239 184.211 78.6793C184.045 78.7347 183.934 78.79 183.824 78.8454L183.436 78.1256C183.879 77.9042 184.322 77.738 184.709 77.6273C185.097 77.5166 185.429 77.5166 185.817 77.5166C186.204 77.5166 186.537 77.5719 186.813 77.6827C187.09 77.7934 187.312 77.9042 187.478 78.0703C187.644 78.2364 187.755 78.4578 187.865 78.6793C187.921 78.9008 187.976 79.1776 187.976 79.3991C187.976 79.7867 187.865 80.1189 187.699 80.3957C187.533 80.6172 187.256 80.8387 186.98 80.9494C187.423 81.0602 187.699 81.2816 187.865 81.5585C188.032 81.8353 188.142 82.1675 188.142 82.5551C188.142 82.9427 188.087 83.2195 187.921 83.4964C187.81 83.7732 187.589 83.9947 187.367 84.1608C187.146 84.3269 186.869 84.493 186.537 84.5484C186.149 84.5484 185.817 84.5484 185.429 84.5484ZM193.347 79.3991L192.683 80.5618L190.412 84.4377H189.36V77.5719H190.357V82.6105L190.412 82.6659L191.132 81.3924L193.347 77.5719H194.344V84.4377H193.347V79.3991ZM197.832 78.5132L197.721 80.4511C197.721 80.8387 197.666 81.1709 197.666 81.4478C197.61 81.7246 197.61 82.0014 197.555 82.2783C197.5 82.4998 197.444 82.7212 197.389 82.9427C197.334 83.1642 197.223 83.3303 197.112 83.4964H200.213V78.5132H197.832ZM196.282 86.4863H195.23L195.174 83.4964L195.783 83.441C195.894 83.3303 196.005 83.1642 196.115 82.9981C196.226 82.832 196.282 82.6659 196.392 82.4444C196.448 82.2229 196.503 81.9461 196.558 81.6139C196.614 81.2816 196.614 80.8941 196.669 80.4511L196.835 77.5166H201.209V83.441H201.929L201.874 86.4309H200.877L200.822 84.3823H196.226L196.282 86.4863ZM203.867 81.2263C203.867 81.5031 203.867 81.78 203.922 82.1122C203.978 82.389 204.033 82.6659 204.144 82.8873C204.255 83.1088 204.476 83.3303 204.698 83.441C204.919 83.6071 205.251 83.6625 205.694 83.6625C205.971 83.6625 206.303 83.6625 206.635 83.6071C206.968 83.5518 207.3 83.441 207.687 83.3303L208.02 84.1054C207.687 84.2715 207.355 84.3823 206.968 84.493C206.58 84.6038 206.137 84.6591 205.694 84.6591C205.085 84.6591 204.587 84.5484 204.199 84.3823C203.812 84.2162 203.535 83.9393 203.258 83.6071C203.037 83.2749 202.87 82.8873 202.815 82.4444C202.76 82.0014 202.704 81.5585 202.704 81.0048C202.704 80.6726 202.76 80.3404 202.815 79.8974C202.87 79.4545 202.981 79.0669 203.203 78.6793C203.369 78.2917 203.646 77.9595 204.033 77.6827C204.365 77.4058 204.864 77.2951 205.473 77.2951C206.137 77.2951 206.635 77.4058 206.968 77.6273C207.355 77.8488 207.577 78.1256 207.798 78.4578C207.964 78.7901 208.075 79.233 208.13 79.6759C208.186 80.1743 208.186 80.6172 208.186 81.1155H203.867V81.2263ZM205.362 78.2364C205.085 78.2364 204.864 78.2917 204.698 78.4025C204.531 78.5132 204.365 78.6793 204.255 78.9008C204.144 79.1223 204.033 79.3437 203.978 79.5652C203.922 79.7867 203.867 80.0635 203.867 80.285H206.857C206.857 80.0082 206.857 79.7313 206.802 79.4545C206.746 79.233 206.691 79.0115 206.58 78.7901C206.469 78.6239 206.303 78.4578 206.137 78.3471C205.916 78.2917 205.639 78.2364 205.362 78.2364ZM213.114 81.337H210.179V84.4377H209.072V77.5719H210.179V80.3957H213.114V77.5719H214.221V84.4377H213.114V81.337ZM217.986 84.4377H216.879V78.5132H214.996V77.5719H219.869V78.5132H217.931V84.4377H217.986ZM225.959 84.3269C225.793 84.3823 225.627 84.4377 225.461 84.493C225.295 84.5484 225.129 84.5484 224.962 84.5484C224.741 84.5484 224.63 84.493 224.52 84.4377C224.409 84.3823 224.298 84.2162 224.243 83.9393L224.187 83.6625L223.468 84.1608C223.246 84.3269 223.025 84.4377 222.858 84.493C222.692 84.5484 222.526 84.6038 222.416 84.6038C221.973 84.6038 221.64 84.5484 221.364 84.3823C221.087 84.2162 220.921 84.0501 220.754 83.884C220.644 83.6625 220.533 83.441 220.478 83.2195C220.422 82.9981 220.422 82.7766 220.422 82.6105C220.422 82.1675 220.533 81.8353 220.699 81.5031C220.865 81.2263 221.142 80.9494 221.474 80.7833C221.806 80.6172 222.194 80.4511 222.637 80.3404C223.08 80.2296 223.578 80.1743 224.132 80.1743V79.6206C224.132 79.233 224.021 78.9008 223.855 78.6793C223.689 78.4578 223.357 78.3471 222.858 78.3471C222.526 78.3471 222.194 78.4025 221.862 78.4578C221.585 78.5132 221.308 78.6239 221.031 78.6793L220.754 77.9042C221.087 77.738 221.419 77.5719 221.806 77.4612C222.194 77.3505 222.582 77.2951 222.969 77.2951C223.8 77.2951 224.353 77.4612 224.686 77.8488C225.018 78.2364 225.184 78.6793 225.184 79.2884V83.5518H225.848V84.3269H225.959ZM224.187 81.0048C223.966 81.0048 223.689 81.0048 223.357 81.0602C223.025 81.1155 222.748 81.1709 222.471 81.2816C222.194 81.3924 221.973 81.5585 221.806 81.7246C221.64 81.9461 221.53 82.1675 221.53 82.4998C221.53 82.8873 221.585 83.1642 221.751 83.3303C221.862 83.5518 222.139 83.6071 222.526 83.6071C222.637 83.6071 222.803 83.6071 222.914 83.5518C223.08 83.4964 223.246 83.441 223.412 83.3303C223.578 83.2195 223.744 83.1642 223.855 83.0534C223.966 82.9427 224.132 82.8873 224.187 82.7766V81.0048ZM80.9486 93.6842V97.7815H79.7305V88.0366H82.1667C82.4435 88.0366 82.7757 88.0366 83.108 88.092C83.4402 88.1474 83.7724 88.2581 84.1046 88.4242C84.4368 88.5903 84.6583 88.8671 84.8798 89.2547C85.1012 89.6423 85.212 90.1406 85.212 90.7497C85.212 91.3587 85.1012 91.8571 84.9351 92.2446C84.769 92.6322 84.4922 92.9091 84.2153 93.1305C83.9385 93.352 83.5509 93.5181 83.2187 93.5735C82.8311 93.6289 82.4435 93.6842 82.1113 93.6842H80.9486ZM80.9486 89.0333V92.6322H82.0006C82.2774 92.6322 82.4989 92.6322 82.7757 92.5769C82.9972 92.5215 83.2187 92.4661 83.4402 92.3C83.6063 92.1893 83.7724 91.9678 83.8831 91.7463C83.9939 91.5248 84.0492 91.1373 84.0492 90.7497C84.0492 90.3621 83.9939 90.0299 83.8831 89.8084C83.7724 89.5869 83.6063 89.4208 83.4402 89.3101C83.2741 89.1994 83.0526 89.144 82.8311 89.0886C82.6096 89.0333 82.3882 89.0333 82.2221 89.0333H80.9486ZM88.4233 98.003C87.925 98.003 87.4821 97.8922 87.1499 97.7261C86.8177 97.56 86.5408 97.2832 86.3193 96.951C86.0979 96.6188 85.9318 96.2312 85.821 95.7882C85.7103 95.3453 85.6549 94.9023 85.6549 94.3486C85.6549 93.8503 85.7103 93.4074 85.821 92.9644C85.9318 92.5215 86.0979 92.1339 86.3193 91.8017C86.5408 91.4695 86.8177 91.1926 87.2052 90.9712C87.5375 90.7497 87.9804 90.6943 88.5341 90.6943C89.0324 90.6943 89.4754 90.8051 89.8076 90.9712C90.1398 91.1373 90.472 91.4141 90.6935 91.7463C90.9149 92.0785 91.081 92.4661 91.1918 92.9091C91.3025 93.352 91.3579 93.795 91.3579 94.2933C91.3579 94.7916 91.3025 95.2346 91.1918 95.6775C91.081 96.1204 90.9149 96.508 90.6935 96.8402C90.472 97.1724 90.1951 97.4493 89.8076 97.6154C89.3646 97.8922 88.9217 98.003 88.4233 98.003ZM88.4787 91.6356C88.1465 91.6356 87.8697 91.691 87.7036 91.8571C87.5374 92.0232 87.316 92.1893 87.2052 92.4107C87.0945 92.6322 86.9838 92.9091 86.9284 93.2413C86.873 93.5735 86.873 93.9057 86.873 94.2379C86.873 94.6255 86.873 95.0131 86.9284 95.3453C86.9838 95.6775 87.0391 96.0097 87.2052 96.2312C87.316 96.508 87.4821 96.6741 87.7036 96.8402C87.925 97.0063 88.1465 97.0617 88.4787 97.0617C88.8109 97.0617 89.0324 97.0063 89.2539 96.8402C89.4754 96.7295 89.6415 96.508 89.7522 96.2866C89.8629 96.0651 89.9737 95.7329 90.029 95.4007C90.0844 95.0684 90.0844 94.6809 90.0844 94.2933C90.0844 93.9611 90.0844 93.6289 90.029 93.2966C89.9737 92.9644 89.9183 92.6876 89.7522 92.4661C89.6415 92.2446 89.4754 92.0232 89.2539 91.8571C89.0324 91.7463 88.7556 91.6356 88.4787 91.6356ZM95.0676 98.003C94.2371 98.003 93.5173 97.6708 93.0743 97.0617C92.576 96.4527 92.3545 95.6221 92.3545 94.5701C92.3545 93.9611 92.4099 93.4627 92.576 92.9644C92.6867 92.4661 92.9082 92.0785 93.1297 91.7463C93.3512 91.4141 93.6834 91.1373 94.0156 90.9712C94.3478 90.8051 94.7907 90.6943 95.1783 90.6943C95.6213 90.6943 96.0089 90.7497 96.3411 90.8051C96.7287 90.8604 97.0055 91.0265 97.2823 91.1926L97.0055 91.9678C96.784 91.9124 96.5072 91.8017 96.175 91.7463C95.8428 91.691 95.5105 91.6356 95.1783 91.6356C94.5693 91.6356 94.1263 91.8571 93.8495 92.3554C93.5726 92.8537 93.4619 93.4628 93.4619 94.2933C93.4619 94.6255 93.4619 94.9577 93.5173 95.2345C93.5726 95.5668 93.628 95.8436 93.7941 96.0651C93.9048 96.3419 94.071 96.508 94.2924 96.6741C94.5139 96.8402 94.7907 96.8956 95.123 96.8956C95.5105 96.8956 95.8428 96.8402 96.175 96.7849C96.5072 96.7295 96.784 96.6188 97.0609 96.508L97.3377 97.3386C97.0609 97.5047 96.7287 97.6154 96.3411 97.7261C96.0642 97.9476 95.5659 98.003 95.0676 98.003ZM100.715 98.003C99.8847 98.003 99.1649 97.6708 98.7219 97.0617C98.2236 96.4527 98.0021 95.6221 98.0021 94.5701C98.0021 93.9611 98.0575 93.4627 98.2236 92.9644C98.3343 92.4661 98.5558 92.0785 98.7773 91.7463C98.9988 91.4141 99.331 91.1373 99.6632 90.9712C99.9954 90.8051 100.438 90.6943 100.826 90.6943C101.269 90.6943 101.656 90.7497 101.989 90.8051C102.376 90.8604 102.653 91.0265 102.93 91.1926L102.653 91.9678C102.432 91.9124 102.155 91.8017 101.823 91.7463C101.49 91.691 101.158 91.6356 100.826 91.6356C100.217 91.6356 99.7739 91.8571 99.4971 92.3554C99.2202 92.8537 99.0541 93.4628 99.0541 94.2933C99.0541 94.6255 99.0541 94.9577 99.1095 95.2345C99.1649 95.5668 99.2202 95.8436 99.3863 96.0651C99.4971 96.3419 99.6632 96.508 99.8847 96.6741C100.106 96.8402 100.383 96.8956 100.715 96.8956C101.103 96.8956 101.435 96.8402 101.767 96.7849C102.099 96.7295 102.376 96.6188 102.653 96.508L102.93 97.3386C102.653 97.5047 102.321 97.6154 101.933 97.7261C101.712 97.9476 101.269 98.003 100.715 98.003ZM107.692 92.7983L107.027 93.9611L104.757 97.8369H103.76V90.9712H104.757V96.0097L104.812 96.0651L105.532 94.7916L107.747 90.9712H108.744V97.8369H107.747V92.7983H107.692ZM114.059 92.7983L113.395 93.9611L111.125 97.8369H110.128V90.9712H111.125V96.0097L111.18 96.0651L111.9 94.7916L114.114 90.9712H115.111V97.8369H114.114V92.7983H114.059ZM120.15 88.0366H125.133V89.0886H121.312V92.1893H123.14C123.416 92.1893 123.693 92.2446 124.081 92.3C124.413 92.3554 124.745 92.5215 125.077 92.6876C125.41 92.9091 125.631 93.1859 125.853 93.5181C126.074 93.9057 126.185 94.3486 126.185 94.9577C126.185 95.5668 126.074 96.0097 125.853 96.3973C125.631 96.7849 125.354 97.0617 125.022 97.2832C124.69 97.5047 124.358 97.6154 124.025 97.7261C123.638 97.7815 123.361 97.8369 123.084 97.8369H120.15V88.0366ZM122.918 96.7849C123.14 96.7849 123.361 96.7295 123.582 96.6741C123.804 96.6188 124.025 96.508 124.247 96.3419C124.468 96.1758 124.579 96.0097 124.745 95.7882C124.856 95.5668 124.911 95.2345 124.911 94.9023C124.911 94.5701 124.856 94.2379 124.745 94.0164C124.634 93.795 124.468 93.6289 124.247 93.4628C124.025 93.352 123.804 93.2413 123.527 93.1859C123.25 93.1305 123.029 93.1305 122.752 93.1305H121.312V96.7849H122.918ZM128.178 97.9476C127.957 97.9476 127.735 97.8369 127.569 97.6708C127.403 97.5047 127.292 97.2832 127.292 97.0617C127.292 96.8402 127.403 96.6188 127.569 96.3973C127.735 96.2312 127.957 96.1205 128.178 96.1205C128.4 96.1205 128.621 96.2312 128.842 96.3973C129.009 96.5634 129.119 96.7849 129.119 97.0617C129.119 97.2832 129.009 97.5047 128.842 97.6708C128.621 97.8922 128.4 97.9476 128.178 97.9476ZM136.483 93.2413H132.718V97.8369H131.5V88.0366H132.718V92.2446H136.483V88.0366H137.701V97.8369H136.483V93.2413ZM140.027 97.9476C139.805 97.9476 139.584 97.8369 139.418 97.6708C139.252 97.5047 139.141 97.2832 139.141 97.0617C139.141 96.8402 139.252 96.6188 139.418 96.3973C139.584 96.2312 139.805 96.1205 140.027 96.1205C140.248 96.1205 140.47 96.2312 140.691 96.3973C140.857 96.5634 140.968 96.7849 140.968 97.0617C140.968 97.2832 140.857 97.5047 140.691 97.6708C140.47 97.8922 140.248 97.9476 140.027 97.9476ZM143.46 88.0366H148.498V89.0886H144.623V92.1893H148.055V93.2413H144.623V96.7849H148.498V97.8369H143.46V88.0366ZM151.211 91.9124V93.4628C151.211 94.1825 151.156 94.7916 151.101 95.2899C151.045 95.7882 150.935 96.2312 150.768 96.5634C150.602 96.8956 150.436 97.2278 150.159 97.4493C149.883 97.6708 149.606 97.8922 149.218 98.1137L148.831 97.3386C149.107 97.1171 149.384 96.8956 149.55 96.6741C149.716 96.4527 149.883 96.2312 149.938 95.9543C150.049 95.6775 150.104 95.3453 150.104 94.9577C150.159 94.5701 150.159 94.1272 150.159 93.5735V90.8604H154.423V97.7261H153.315V91.9124H151.211ZM158.742 96.8402C158.852 96.8402 159.018 96.8402 159.129 96.7849C159.295 96.7295 159.406 96.6741 159.517 96.6188C159.627 96.508 159.738 96.3973 159.849 96.2866C159.96 96.1204 159.96 95.9543 159.96 95.7329C159.96 95.5114 159.904 95.3453 159.849 95.2345C159.794 95.1238 159.683 95.0131 159.572 94.9023C159.461 94.847 159.295 94.7362 159.129 94.7362C158.963 94.6809 158.797 94.6809 158.631 94.6809H157.081V96.8956L158.742 96.8402ZM156.084 90.9712H157.136V93.795H158.908C159.129 93.795 159.351 93.795 159.627 93.8503C159.904 93.9057 160.126 94.0164 160.347 94.1272C160.569 94.2379 160.735 94.4594 160.901 94.7362C161.067 95.0131 161.122 95.3453 161.122 95.7329C161.122 96.1204 161.067 96.4527 160.901 96.6741C160.735 96.951 160.569 97.1725 160.347 97.3386C160.126 97.5047 159.904 97.6154 159.627 97.6708C159.351 97.7261 159.129 97.7815 158.908 97.7815H156.139V90.9712H156.084ZM163.448 96.8402H166.327V90.9158H167.434V96.8402L168.154 96.8956L168.099 99.8855H167.102L167.047 97.8369H162.23V90.9712H163.337V96.8402H163.448ZM173.027 92.7983L172.362 93.9611L170.092 97.8369H169.096V90.9712H170.092V96.0097L170.148 96.0651L170.867 94.7916L173.082 90.9712H174.079V97.8369H173.082L173.027 92.7983ZM179.505 94.6809H176.57V97.7815H175.463V90.9158H176.57V93.7396H179.505V90.9158H180.612V97.7815H179.505V94.6809Z" fill="white"/>
<path d="M187.201 97.7271C187.035 97.7825 186.869 97.8379 186.703 97.8932C186.537 97.9486 186.37 97.9486 186.204 97.9486C185.983 97.9486 185.872 97.8932 185.761 97.8379C185.651 97.7825 185.54 97.6164 185.484 97.3396L185.429 97.0627L184.709 97.561C184.488 97.7271 184.266 97.8379 184.1 97.8932C183.934 97.9486 183.768 98.004 183.657 98.004C183.214 98.004 182.882 97.9486 182.605 97.7825C182.328 97.6164 182.162 97.4503 181.996 97.2842C181.886 97.0627 181.775 96.8412 181.719 96.6198C181.664 96.3983 181.664 96.1768 181.664 96.0107C181.664 95.5678 181.775 95.2355 181.941 94.9033C182.107 94.6265 182.384 94.3496 182.716 94.1835C183.048 94.0174 183.436 93.8513 183.879 93.7406C184.322 93.6299 184.82 93.5745 185.374 93.5745V93.0208C185.374 92.6332 185.263 92.301 185.097 92.0795C184.931 91.8581 184.599 91.7473 184.1 91.7473C183.768 91.7473 183.436 91.8027 183.104 91.858C182.827 91.9134 182.55 92.0242 182.273 92.0795L181.996 91.3044C182.328 91.1383 182.661 90.9722 183.048 90.8614C183.436 90.7507 183.823 90.6953 184.211 90.6953C185.042 90.6953 185.595 90.8614 185.927 91.249C186.26 91.6366 186.426 92.0795 186.426 92.6886V96.952H187.09V97.7271H187.201ZM185.429 94.405C185.208 94.405 184.931 94.405 184.599 94.4604C184.266 94.5158 183.99 94.5711 183.713 94.6819C183.436 94.7926 183.214 94.9587 183.048 95.1248C182.882 95.3463 182.771 95.5678 182.771 95.9C182.771 96.2875 182.827 96.5644 182.993 96.7305C183.104 96.952 183.38 97.0073 183.768 97.0073C183.879 97.0073 184.045 97.0073 184.156 96.952C184.266 96.8966 184.488 96.8412 184.654 96.7305C184.82 96.6198 184.986 96.5644 185.097 96.4537C185.263 96.3429 185.374 96.2875 185.429 96.1768V94.405Z" fill="white"/>
</svg>