<svg id="Layer_1" data-name="Layer 1" xmlns="http://www.w3.org/2000/svg" xmlns:xlink="http://www.w3.org/1999/xlink" viewBox="0 0 521.1 177.24"><defs><linearGradient id="linear-gradient" x1="55.92" y1="177" x2="55.92" y2="9.64" gradientTransform="matrix(1, 0, 0, -1, 0, 177)" gradientUnits="userSpaceOnUse"><stop offset="0" stop-color="#e30d7f"/><stop offset="0.48" stop-color="#e12026"/><stop offset="1" stop-color="#fceb06"/></linearGradient></defs><title>logo_2</title><path d="M0,6.76c13.62,0,19.39,9.5,25.51,19.69l50.15,86c2.36,4.29,4.7,9.48,4.63,14.33-0.19,12.65-16.61,17.28-26.44,17.77a45.35,45.35,0,0,1-20.69-4.21l-4,5.14c2.33,9.92,11.51,22,24.13,21.88,21.92-.16,33.43-20.2,42.24-36.53l16.32-30.24L64.48,19.33C60.1,12.06,67.29,6.78,74.92,6.73L76.66,0H1.75Z" style="fill:url(#linear-gradient)"/><path d="M402.69,4.27a15.32,15.32,0,0,0,18.31,0L418.08,0A10.35,10.35,0,0,1,405.6,0Zm23.4,41.37V10.78H419L404.62,34.55V10.78h-7V45.64h7.1L419,22V45.64h7.09Z" style="fill:#2d2d2d"/><path d="M189.26,34.82c0,3-3,4.89-5.79,4.89a12.48,12.48,0,0,1-6.36-1.91V19a11.07,11.07,0,0,1,6.78-2.55,5.16,5.16,0,0,1,5.37,4.94V34.82Zm7.31-.76V22c0-7.57-4-11.89-11.55-11.89-2.83,0-7.71,1.13-9.69,2.76a5.41,5.41,0,0,0-2.75-2.74l-4.47,4.12c1.7,1.13,1.75,3.37,1.75,4.36V56.87h7.24V44.68a19.75,19.75,0,0,0,7.35,1.5c6.8,0,12.12-4.26,12.12-12.11h0Z" style="fill:#2d2d2d"/><path d="M219.65,37.62c-1.73,2.24-4.88,2.87-7.28,2.44a4.46,4.46,0,0,1-3.44-4.22,5.07,5.07,0,0,1,5.36-5.38h5.36v7.16Zm42.27,8V10.7H238V32.34c0,4.4-2.74,8.07-6.58,8.17-1.78,0-4.5-1.14-4.5-3.84V22c0-7.22-3.83-11.82-12-11.82a17.16,17.16,0,0,0-12.17,4.74l3.82,4.7a12.26,12.26,0,0,1,7.64-3.26c2.41,0,5.44,1.07,5.44,4.32V24.4h-5.93c-8.49,0-12,5.39-12,11,0,5.45,3,10.77,11.55,10.77a12.59,12.59,0,0,0,8.07-3.36,13.2,13.2,0,0,0,10.28,3.58c8.24-.26,13.52-4.7,13.31-14.31V16.67h10v29H262Z" style="fill:#2d2d2d"/><polygon points="357.65 45.67 344.69 27.23 356.8 10.78 348.56 10.78 339.48 24.45 335.03 24.45 335.03 10.7 327.93 10.7 327.93 45.67 334.89 45.67 334.96 30.43 339.38 30.43 349.38 45.67 357.65 45.67" style="fill:#2d2d2d"/><path d="M276.5,39.67h6.09c3.2,0,4.47-3.51,4.47-5.84s-1.34-5.29-4.58-5.29h-6V39.67h0Zm-7.24,6v-35h7.24V22.56h5.12c8.49,0,13,5.18,12.92,11.15s-4.27,12-12.83,12H269.26Z" style="fill:#2d2d2d"/><path d="M323.31,41.71l-3-5.26c-4.11,2.9-6.58,3.75-8.64,3.75-2.9,0-5.79-1.49-5.79-4.53V22.13c0-3.11,2.89-5.31,6.22-5.31a10.74,10.74,0,0,1,7.15,3.54L323,15.59a14.26,14.26,0,0,0-11.75-5.38c-7.15,0-12.68,4.39-12.68,12v13.1c0,7.43,5.74,10.91,12.82,10.91a18.35,18.35,0,0,0,11.89-4.47" style="fill:#2d2d2d"/><polygon points="390.26 45.64 390.26 10.78 383.15 10.78 368.79 34.55 368.79 10.78 361.76 10.78 361.76 45.64 368.79 45.64 368.86 45.64 383.15 21.98 383.15 45.64 390.26 45.64" style="fill:#2d2d2d"/><path d="M167.92,0h-8.1l-6.26,20.79c-0.12.38-.27,0.8-0.36,1.21s-0.17.76-.22,1a4.19,4.19,0,0,0-.07.45,2.08,2.08,0,0,0-.07-0.43c-0.07-.28-0.13-0.62-0.21-1a6.56,6.56,0,0,0-.36-1.19L143,0h-8.2l14.8,32.52-0.94,2.36c-1.19,2.61-4.31,5.47-9.89,5.71l0.89,5.64c8.2,0.18,13.6-3.46,15.69-9.56Z" style="fill:#2d2d2d"/><path d="M497.7,63.39a15.32,15.32,0,0,0,18.31,0l-2.91-4.27a10.34,10.34,0,0,1-12.49,0Zm23.4,41.37V69.9H514L499.63,93.67V69.9h-7v34.86h7.1L514,81.1v23.66h7.1Z" style="fill:#2d2d2d"/><rect x="478.16" y="69.9" width="7.1" height="34.86" style="fill:#2d2d2d"/><path d="M456.21,98.87h6.09c3.2,0,4.47-3.51,4.47-5.85s-1.34-5.29-4.58-5.29h-6V98.87h0Zm-7.21,6v-35h7.24V81.77h5.12c8.49,0,13,5.18,12.92,11.14s-4.27,12-12.83,12H449Z" style="fill:#2d2d2d"/><path d="M168.48,94a4.93,4.93,0,0,1-5,4.89h-0.27C161,98.88,159.73,98,159,97V78.78h0v-1c0.59-1.07,2.72-2.15,4.63-2.15a4.71,4.71,0,0,1,4.82,4.6q0,0.2,0,.4V94h0ZM151.79,77.74v0.73h0V96.92c-0.7,1.07-1.94,1.91-4.21,1.91a4.93,4.93,0,0,1-5.22-4.62q0-.1,0-0.21V80.62a4.71,4.71,0,0,1,4.41-5h0.4C149.07,75.59,151.2,76.67,151.79,77.74Zm24,15.45v-12c0-7.57-3.49-11.89-11-11.89A11.83,11.83,0,0,0,159,70.78V64.2h-7.24v6.57a11.85,11.85,0,0,0-5.77-1.5c-7.5,0-11,4.32-11,11.89v12c0,7.86,4.76,12.11,11.56,12.11a10.81,10.81,0,0,0,5.2-1.5V116H159V103.81a10.81,10.81,0,0,0,5.2,1.5C171,105.31,175.79,101.05,175.79,93.19Z" style="fill:#2d2d2d"/><path d="M200.16,79.77v4.34h-10.8V80.26c0-3.12,2.68-4.88,5.79-4.88,1.91,0,5,1.28,5,4.39m8.08,20.93-3.05-5.47A15.19,15.19,0,0,1,195.5,99c-3.47,0-6.15-1.91-6.15-5.66V90.08h18.12v-8.5c0-8.85-5.6-12.24-12.33-12.24-7.71,0-13.1,4-13.1,12.67V93.62c0,7.78,5.11,11.69,12.89,11.69,5.74,0,9.21-1.85,13.31-4.61h0Z" style="fill:#2d2d2d"/><path d="M222.42,98.88c1.78-1.95,2.89-5.67,2.81-9.47V75.88h10v23H222.42Zm19.86,0v-29H218.33V89.17c0,4.4-2.57,9.6-6.41,9.71h-0.67v14.43h6.9v-8.46h21v8.46h7.08V98.88h-3.95Z" style="fill:#2d2d2d"/><polygon points="441.63 104.76 441.63 69.9 434.53 69.9 434.53 83.51 420.17 83.51 420.17 69.9 413.14 69.9 413.14 104.76 420.17 104.76 420.17 89.49 434.53 89.49 434.53 104.76 441.63 104.76" style="fill:#2d2d2d"/><path d="M302.57,94c0,3-3,4.89-5.79,4.89A12.48,12.48,0,0,1,290.42,97V78.21a11.08,11.08,0,0,1,6.78-2.55,5.16,5.16,0,0,1,5.37,4.94V94Zm7.31-.76v-12c0-7.57-4-11.89-11.55-11.89-2.83,0-7.71,1.14-9.69,2.76a5.41,5.41,0,0,0-2.76-2.75l-4.47,4.12c1.7,1.13,1.75,3.37,1.75,4.36v38.23h7.24V103.88a19.76,19.76,0,0,0,7.35,1.5c6.82,0,12.14-4.26,12.14-12.11v0Z" style="fill:#2d2d2d"/><path d="M333,96.82c-2.67,3.46-10.61,3.9-10.72-1.77a5.07,5.07,0,0,1,5.36-5.38H333v7.16h0Zm42.27,8V69.9h-24V91.54c0,4.4-2.74,8.07-6.58,8.18-1.78,0-4.5-1.14-4.5-3.84V81.16c0-7.22-3.83-11.82-12-11.82A17.16,17.16,0,0,0,316,74.08l3.82,4.7a12.26,12.26,0,0,1,7.64-3.26c2.41,0,5.44,1.07,5.44,4.32v3.72H327c-8.49,0-12,5.39-12,11.05,0,5.45,3,10.77,11.55,10.77a12.6,12.6,0,0,0,8.07-3.36,13.2,13.2,0,0,0,10.27,3.58c8.24-.26,13.52-4.7,13.31-14.31V75.87h10v29h7.09Z" style="fill:#2d2d2d"/><path d="M389.81,98.87h6.09c3.2,0,4.47-3.51,4.47-5.85s-1.34-5.29-4.58-5.29h-6V98.87h0Zm-7.24,6.05v-35h7.24V81.77h5.12c8.5,0,13,5.18,12.92,11.14s-4.27,12-12.83,12H382.57Z" style="fill:#2d2d2d"/><path d="M269,79.77v4.34H258.18V80.26c0-3.12,2.68-4.88,5.79-4.88,1.91,0,5,1.28,5,4.39M277,100.7l-3-5.47A15.19,15.19,0,0,1,264.32,99c-3.47,0-6.15-1.91-6.15-5.66V90.08H276.3v-8.5c0-8.85-5.6-12.24-12.33-12.24-7.72,0-13.11,4-13.11,12.67V93.62c0,7.78,5.11,11.69,12.89,11.69,5.74,0,9.25-1.85,13.31-4.61h0Z" style="fill:#2d2d2d"/><path d="M164.93,129.11H157l-7.14,27.1a17.38,17.38,0,0,0-.78-5L143,129.06l-8,.07s9.34,29.54,11.54,34.71c-1.07,4.57-3.57,7.61-8.85,8.11l0.69,5.29c8,0,12.58-4.32,14.23-9.65Z" style="fill:#2d2d2d"/><polygon points="197.96 163.97 197.96 129.11 190.86 129.11 190.86 142.72 176.5 142.72 176.5 129.11 169.47 129.11 169.47 163.97 176.5 163.97 176.5 148.7 190.86 148.7 190.86 163.97 197.96 163.97" style="fill:#2d2d2d"/><polygon points="233.79 163.97 233.79 129.11 226.69 129.11 212.32 152.88 212.32 129.11 205.3 129.11 205.3 163.97 212.32 163.97 212.4 163.97 226.69 140.31 226.69 163.97 233.79 163.97" style="fill:#2d2d2d"/><path d="M248.37,157.92h6.09c3.2,0,4.47-2.55,4.47-4.89s-1.34-4.4-4.58-4.4h-6v9.28h0Zm0-22.76v7.53h5.21a3.36,3.36,0,0,0,3.68-3.72,3.6,3.6,0,0,0-3.38-3.8h-5.51ZM241.13,164V129.11h12.45c8.56,0,11.23,5.21,11.11,9.2a7.66,7.66,0,0,1-4.25,7,8.64,8.64,0,0,1,5.91,8.31c0,5-3.72,10.37-12.28,10.37H241.13Z" style="fill:#2d2d2d"/><polygon points="399.72 129.11 399.72 135.08 408.53 135.08 408.53 164.05 408.99 164.05 415.62 164.05 416.08 164.05 416.08 135.08 424.89 135.08 424.89 129.11 399.72 129.11" style="fill:#2d2d2d"/><polygon points="457.63 129.11 457.63 135.08 466.44 135.08 466.44 164.05 466.9 164.05 473.53 164.05 473.99 164.05 473.98 135.08 482.79 135.08 482.79 129.11 457.63 129.11" style="fill:#2d2d2d"/><polygon points="394.47 163.97 394.47 129.11 387.37 129.11 373 152.88 373 129.11 365.98 129.11 365.98 163.97 373 163.97 373.07 163.97 387.37 140.31 387.37 163.97 394.47 163.97" style="fill:#2d2d2d"/><path d="M323.07,153.15c0,3-3,4.88-5.79,4.88a12.48,12.48,0,0,1-6.36-1.91V137.34a11.07,11.07,0,0,1,6.78-2.55,5.16,5.16,0,0,1,5.37,4.94v13.42Zm7.31-.76v-12c0-7.57-4-11.89-11.55-11.89-2.83,0-7.71,1.13-9.69,2.76a5.41,5.41,0,0,0-2.76-2.74l-4.47,4.12c1.7,1.13,1.75,3.37,1.75,4.36v38.2h7.24V163a19.75,19.75,0,0,0,7.35,1.5C325.06,164.51,330.38,160.25,330.38,152.39Z" style="fill:#2d2d2d"/><path d="M361.35,160l-3-5.26c-4.11,2.9-6.58,3.75-8.63,3.75-2.9,0-5.79-1.49-5.79-4.53V140.38c0-3.11,2.89-5.31,6.22-5.31a10.75,10.75,0,0,1,7.15,3.54l3.75-4.76a14.25,14.25,0,0,0-11.75-5.38c-7.15,0-12.68,4.39-12.68,12v13.1c0,7.43,5.74,10.91,12.82,10.91A18.35,18.35,0,0,0,361.35,160" style="fill:#2d2d2d"/><path d="M446.71,138.9v4.34H435.9V139.4c0-3.11,2.68-4.88,5.79-4.88,1.91,0,5,1.28,5,4.39m8.08,20.93-3-5.47a15.17,15.17,0,0,1-9.69,3.75c-3.47,0-6.15-1.91-6.15-5.66v-3.23H454v-8.5c0-8.85-5.6-12.24-12.33-12.24-7.71,0-13.1,4-13.1,12.67v11.61c0,7.78,5.11,11.69,12.89,11.69,5.76,0,9.23-1.88,13.33-4.64Z" style="fill:#2d2d2d"/><path d="M289.62,138.9v4.34h-10.8V139.4c0-3.11,2.68-4.88,5.79-4.88,1.91,0,5,1.28,5,4.39m8.08,20.93-3-5.47a15.17,15.17,0,0,1-9.69,3.75c-3.47,0-6.15-1.91-6.15-5.66v-3.23h18.12v-8.5c0-8.85-5.6-12.24-12.33-12.24-7.71,0-13.1,4-13.1,12.67v11.61c0,7.78,5.11,11.69,12.89,11.69,5.75,0,9.22-1.88,13.33-4.64Z" style="fill:#2d2d2d"/></svg>